<?xml version="1.0" encoding="UTF-8"?>
<svg width="48" height="48" version="1.1" viewBox="0 0 12.7 12.7" xmlns="http://www.w3.org/2000/svg">
<defs>
<mask id="a" maskUnits="userSpaceOnUse">
<path d="m0.065077-0.007813h12.57v12.716h-12.57z" fill="#fff"/>
<path d="m6.352 4.7609a1.5875 1.5875 0 0 1 1.5856 1.5891 1.5875 1.5875 0 0 1-1.5889 1.5859 1.5875 1.5875 0 0 1-1.5861-1.5886 1.5875 1.5875 0 0 1 1.5884-1.5864" stroke-miterlimit="4.1" stroke-width="0"/>
</mask>
</defs>
<g transform="matrix(.88406 0 0 .87392 .73622 .80058)" fill="#fff" mask="url(#a)" stroke-miterlimit="4.1" stroke-width="0">
<path x="5.0601573" y="0.9921875" width="2.5796864" height="10.715625" ry="0" d="m5.0602 0.99219h2.5797v10.716h-2.5797z"/>
<path d="m6.6098 2.0439a4.2646 4.3141 0 0 1 3.9969 4.5688 4.2646 4.3141 0 0 1-4.5164 4.0433 4.2646 4.3141 0 0 1-3.9971-4.5687 4.2646 4.3141 0 0 1 4.5162-4.0435"/>
<path transform="rotate(-60)" x="-3.6141043" y="3.3164494" width="2.5796864" height="10.715625" ry="0" d="m-3.6141 3.3164h2.5797v10.716h-2.5797z"/>
<path transform="rotate(60)" x="7.3844185" y="-7.6820741" width="2.5796864" height="10.715625" ry="0" d="m7.3844-7.6821h2.5797v10.716h-2.5797z"/>
</g>
</svg>