<?xml version="1.0" encoding="UTF-8"?>
<svg width="512" height="512" version="1.1" viewBox="0 0 135.47 135.47" xml:space="preserve" xmlns="http://www.w3.org/2000/svg"><defs><mask id="c" maskUnits="userSpaceOnUse"><path d="m0.065077-0.007813h12.57v12.716h-12.57z" fill="#fff"/><path d="m6.352 4.7609a1.5875 1.5875 0 0 1 1.5856 1.5891 1.5875 1.5875 0 0 1-1.5889 1.5859 1.5875 1.5875 0 0 1-1.5861-1.5886 1.5875 1.5875 0 0 1 1.5884-1.5864" stroke-miterlimit="4.1" stroke-width="0"/></mask><mask id="b" maskUnits="userSpaceOnUse"><path d="m33.194 6.7708h108.56v105.1h-108.56z" fill="#fff"/><g transform="matrix(2.1317 7.6038 -7.2152 0 119.76 11.039)" mask="url(#c)" stroke-miterlimit="4.1" stroke-width="0"><path x="5.0601573" y="0.9921875" width="2.5796864" height="10.715625" ry="0" d="m5.0602 0.99219h2.5797v10.716h-2.5797z" stroke-width="0"/><path d="m6.6098 2.0439a4.2646 4.3141 0 0 1 3.9969 4.5688 4.2646 4.3141 0 0 1-4.5164 4.0433 4.2646 4.3141 0 0 1-3.9971-4.5687 4.2646 4.3141 0 0 1 4.5162-4.0435" stroke-width="0"/><path transform="rotate(-60)" x="-3.6141043" y="3.3164494" width="2.5796864" height="10.715625" ry="0" d="m-3.6141 3.3164h2.5797v10.716h-2.5797z" stroke-width="0"/><path transform="rotate(60)" x="7.3844185" y="-7.6820741" width="2.5796864" height="10.715625" ry="0" d="m7.3844-7.6821h2.5797v10.716h-2.5797z"/></g></mask></defs><g transform="translate(-3.11 10.789)"><path transform="matrix(1 0 -.28035 .9599 0 0)" x="34.193645" y="7.7708035" width="106.56155" height="103.10458" ry="6.2094735e-08" d="m34.194 7.7708h106.56v103.1h-106.56-1e-6v-103.1h1e-6z" fill="#fff" mask="url(#b)" stroke-width=".27005"/></g></svg>
